<svg id="Capa_1" data-name="Capa 1" xmlns="http://www.w3.org/2000/svg" viewBox="0 0 243 87.72"><path d="M4.46,25.64l9-9H27l-13.5,13.5v4.5l-9,9Zm9,54-9-9v-18l9,9v4.5L27,79.64Zm27,0-18-18v-9H16.84l1.12-9h4.5v-9l18-18H72l-9,9H45l-13.5,13.5v18L45,70.64H63l9,9Zm13.5-27-4.5-4.5,4.5-4.5H72l4.5,4.5L72,52.64Zm54-27H90l-9,9H67.46l18-18h27l9,9v13.5Zm-22.5,54-18-18H81l9,9h18l4.5-4.5v-4.5l-9-9H81l4.5-4.5L81,43.64h27l13.5,13.5v13.5l-9,9Z" transform="translate(-4.46 -16.64)" style="fill:#64ffda"/><path d="M148.46,61.64l-18-18v-18l9,9v4.5L162,61.64Zm9-13.5v-9L135,16.64h13.5l18,18v9L189,66.14l22.5-22.5v-9l18-18H243l-22.5,22.5v9L189,79.64Zm18-9V25.64L189,39.14l13.5-13.5v13.5L189,52.64ZM216,61.64l22.5-22.5v-4.5l9-9v18l-18,18Z" transform="translate(-4.46 -16.64)" style="fill:#64ffda"/><rect y="77.64" width="240.45" height="10.08" style="fill:#495670"/></svg>